<svg xmlns="http://www.w3.org/2000/svg" version="1.1" xmlns:xlink="http://www.w3.org/1999/xlink" xmlns:svgjs="http://svgjs.dev/svgjs" viewBox="0 0 800 800" opacity="1" width="800" height="800"><g stroke-width="3.75" stroke="hsl(261, 60%, 38%)" fill="none"><circle r="4.605263157894737" cx="0" cy="0" fill="hsl(261, 60%, 38%)" stroke="none"></circle><circle r="4.605263157894737" cx="57.142857142857146" cy="0" fill="hsl(261, 60%, 38%)" stroke="none"></circle><circle r="4.605263157894737" cx="114.28571428571429" cy="0" fill="hsl(261, 60%, 38%)" stroke="none"></circle><circle r="4.605263157894737" cx="171.42857142857144" cy="0" fill="hsl(261, 60%, 38%)" stroke="none"></circle><circle r="4.605263157894737" cx="228.57142857142858" cy="0" fill="hsl(261, 60%, 38%)" stroke="none"></circle><circle r="4.605263157894737" cx="285.7142857142857" cy="0" fill="hsl(261, 60%, 38%)" stroke="none"></circle><circle r="4.605263157894737" cx="342.8571428571429" cy="0" fill="hsl(261, 60%, 38%)" stroke="none"></circle><circle r="4.605263157894737" cx="400.00000000000006" cy="0" fill="hsl(261, 60%, 38%)" stroke="none"></circle><circle r="4.605263157894737" cx="457.1428571428572" cy="0" fill="hsl(261, 60%, 38%)" stroke="none"></circle><circle r="4.605263157894737" cx="514.2857142857143" cy="0" fill="hsl(261, 60%, 38%)" stroke="none"></circle><circle r="4.605263157894737" cx="571.4285714285714" cy="0" fill="hsl(261, 60%, 38%)" stroke="none"></circle><circle r="4.605263157894737" cx="628.5714285714286" cy="0" fill="hsl(261, 60%, 38%)" stroke="none"></circle><circle r="4.605263157894737" cx="685.7142857142857" cy="0" fill="hsl(261, 60%, 38%)" stroke="none"></circle><circle r="4.605263157894737" cx="742.8571428571428" cy="0" fill="hsl(261, 60%, 38%)" stroke="none"></circle><circle r="4.605263157894737" cx="799.9999999999999" cy="0" fill="hsl(261, 60%, 38%)" stroke="none"></circle><circle r="4.605263157894737" cx="0" cy="80" fill="hsl(261, 60%, 38%)" stroke="none"></circle><circle r="4.605263157894737" cx="57.142857142857146" cy="80" fill="hsl(261, 60%, 38%)" stroke="none"></circle><circle r="4.605263157894737" cx="114.28571428571429" cy="80" fill="hsl(261, 60%, 38%)" stroke="none"></circle><circle r="4.605263157894737" cx="171.42857142857144" cy="80" fill="hsl(261, 60%, 38%)" stroke="none"></circle><circle r="4.605263157894737" cx="228.57142857142858" cy="80" fill="hsl(261, 60%, 38%)" stroke="none"></circle><circle r="4.605263157894737" cx="285.7142857142857" cy="80" fill="hsl(261, 60%, 38%)" stroke="none"></circle><circle r="4.605263157894737" cx="342.8571428571429" cy="80" fill="hsl(261, 60%, 38%)" stroke="none"></circle><circle r="4.605263157894737" cx="400.00000000000006" cy="80" fill="hsl(261, 60%, 38%)" stroke="none"></circle><circle r="4.605263157894737" cx="457.1428571428572" cy="80" fill="hsl(261, 60%, 38%)" stroke="none"></circle><circle r="4.605263157894737" cx="514.2857142857143" cy="80" fill="hsl(261, 60%, 38%)" stroke="none"></circle><circle r="4.605263157894737" cx="571.4285714285714" cy="80" fill="hsl(261, 60%, 38%)" stroke="none"></circle><circle r="4.605263157894737" cx="628.5714285714286" cy="80" fill="hsl(261, 60%, 38%)" stroke="none"></circle><circle r="4.605263157894737" cx="685.7142857142857" cy="80" fill="hsl(261, 60%, 38%)" stroke="none"></circle><circle r="4.605263157894737" cx="742.8571428571428" cy="80" fill="hsl(261, 60%, 38%)" stroke="none"></circle><circle r="4.605263157894737" cx="799.9999999999999" cy="80" fill="hsl(261, 60%, 38%)" stroke="none"></circle><circle r="4.605263157894737" cx="0" cy="160" fill="hsl(261, 60%, 38%)" stroke="none"></circle><circle r="4.605263157894737" cx="57.142857142857146" cy="160" fill="hsl(261, 60%, 38%)" stroke="none"></circle><circle r="4.605263157894737" cx="114.28571428571429" cy="160" fill="hsl(261, 60%, 38%)" stroke="none"></circle><circle r="4.605263157894737" cx="171.42857142857144" cy="160" fill="hsl(261, 60%, 38%)" stroke="none"></circle><circle r="4.605263157894737" cx="228.57142857142858" cy="160" fill="hsl(261, 60%, 38%)" stroke="none"></circle><circle r="4.605263157894737" cx="285.7142857142857" cy="160" fill="hsl(261, 60%, 38%)" stroke="none"></circle><circle r="4.605263157894737" cx="342.8571428571429" cy="160" fill="hsl(261, 60%, 38%)" stroke="none"></circle><circle r="4.605263157894737" cx="400.00000000000006" cy="160" fill="hsl(261, 60%, 38%)" stroke="none"></circle><circle r="4.605263157894737" cx="457.1428571428572" cy="160" fill="hsl(261, 60%, 38%)" stroke="none"></circle><circle r="4.605263157894737" cx="514.2857142857143" cy="160" fill="hsl(261, 60%, 38%)" stroke="none"></circle><circle r="4.605263157894737" cx="571.4285714285714" cy="160" fill="hsl(261, 60%, 38%)" stroke="none"></circle><circle r="4.605263157894737" cx="628.5714285714286" cy="160" fill="hsl(261, 60%, 38%)" stroke="none"></circle><circle r="4.605263157894737" cx="685.7142857142857" cy="160" fill="hsl(261, 60%, 38%)" stroke="none"></circle><circle r="4.605263157894737" cx="742.8571428571428" cy="160" fill="hsl(261, 60%, 38%)" stroke="none"></circle><circle r="4.605263157894737" cx="799.9999999999999" cy="160" fill="hsl(261, 60%, 38%)" stroke="none"></circle><circle r="4.605263157894737" cx="0" cy="240" fill="hsl(261, 60%, 38%)" stroke="none"></circle><circle r="4.605263157894737" cx="57.142857142857146" cy="240" fill="hsl(261, 60%, 38%)" stroke="none"></circle><circle r="4.605263157894737" cx="114.28571428571429" cy="240" fill="hsl(261, 60%, 38%)" stroke="none"></circle><circle r="4.605263157894737" cx="171.42857142857144" cy="240" fill="hsl(261, 60%, 38%)" stroke="none"></circle><circle r="4.605263157894737" cx="228.57142857142858" cy="240" fill="hsl(261, 60%, 38%)" stroke="none"></circle><circle r="4.605263157894737" cx="285.7142857142857" cy="240" fill="hsl(261, 60%, 38%)" stroke="none"></circle><circle r="4.605263157894737" cx="342.8571428571429" cy="240" fill="hsl(261, 60%, 38%)" stroke="none"></circle><circle r="4.605263157894737" cx="400.00000000000006" cy="240" fill="hsl(261, 60%, 38%)" stroke="none"></circle><circle r="4.605263157894737" cx="457.1428571428572" cy="240" fill="hsl(261, 60%, 38%)" stroke="none"></circle><circle r="4.605263157894737" cx="514.2857142857143" cy="240" fill="hsl(261, 60%, 38%)" stroke="none"></circle><circle r="4.605263157894737" cx="571.4285714285714" cy="240" fill="hsl(261, 60%, 38%)" stroke="none"></circle><circle r="4.605263157894737" cx="628.5714285714286" cy="240" fill="hsl(261, 60%, 38%)" stroke="none"></circle><circle r="4.605263157894737" cx="685.7142857142857" cy="240" fill="hsl(261, 60%, 38%)" stroke="none"></circle><circle r="4.605263157894737" cx="742.8571428571428" cy="240" fill="hsl(261, 60%, 38%)" stroke="none"></circle><circle r="4.605263157894737" cx="799.9999999999999" cy="240" fill="hsl(261, 60%, 38%)" stroke="none"></circle><circle r="4.605263157894737" cx="0" cy="320" fill="hsl(261, 60%, 38%)" stroke="none"></circle><circle r="4.605263157894737" cx="57.142857142857146" cy="320" fill="hsl(261, 60%, 38%)" stroke="none"></circle><circle r="4.605263157894737" cx="114.28571428571429" cy="320" fill="hsl(261, 60%, 38%)" stroke="none"></circle><circle r="4.605263157894737" cx="171.42857142857144" cy="320" fill="hsl(261, 60%, 38%)" stroke="none"></circle><circle r="4.605263157894737" cx="228.57142857142858" cy="320" fill="hsl(261, 60%, 38%)" stroke="none"></circle><circle r="4.605263157894737" cx="285.7142857142857" cy="320" fill="hsl(261, 60%, 38%)" stroke="none"></circle><circle r="4.605263157894737" cx="342.8571428571429" cy="320" fill="hsl(261, 60%, 38%)" stroke="none"></circle><circle r="4.605263157894737" cx="400.00000000000006" cy="320" fill="hsl(261, 60%, 38%)" stroke="none"></circle><circle r="4.605263157894737" cx="457.1428571428572" cy="320" fill="hsl(261, 60%, 38%)" stroke="none"></circle><circle r="4.605263157894737" cx="514.2857142857143" cy="320" fill="hsl(261, 60%, 38%)" stroke="none"></circle><circle r="4.605263157894737" cx="571.4285714285714" cy="320" fill="hsl(261, 60%, 38%)" stroke="none"></circle><circle r="4.605263157894737" cx="628.5714285714286" cy="320" fill="hsl(261, 60%, 38%)" stroke="none"></circle><circle r="4.605263157894737" cx="685.7142857142857" cy="320" fill="hsl(261, 60%, 38%)" stroke="none"></circle><circle r="4.605263157894737" cx="742.8571428571428" cy="320" fill="hsl(261, 60%, 38%)" stroke="none"></circle><circle r="4.605263157894737" cx="799.9999999999999" cy="320" fill="hsl(261, 60%, 38%)" stroke="none"></circle><circle r="4.605263157894737" cx="0" cy="400" fill="hsl(261, 60%, 38%)" stroke="none"></circle><circle r="4.605263157894737" cx="57.142857142857146" cy="400" fill="hsl(261, 60%, 38%)" stroke="none"></circle><circle r="4.605263157894737" cx="114.28571428571429" cy="400" fill="hsl(261, 60%, 38%)" stroke="none"></circle><circle r="4.605263157894737" cx="171.42857142857144" cy="400" fill="hsl(261, 60%, 38%)" stroke="none"></circle><circle r="4.605263157894737" cx="228.57142857142858" cy="400" fill="hsl(261, 60%, 38%)" stroke="none"></circle><circle r="4.605263157894737" cx="285.7142857142857" cy="400" fill="hsl(261, 60%, 38%)" stroke="none"></circle><circle r="4.605263157894737" cx="342.8571428571429" cy="400" fill="hsl(261, 60%, 38%)" stroke="none"></circle><circle r="4.605263157894737" cx="400.00000000000006" cy="400" fill="hsl(261, 60%, 38%)" stroke="none"></circle><circle r="4.605263157894737" cx="457.1428571428572" cy="400" fill="hsl(261, 60%, 38%)" stroke="none"></circle><circle r="4.605263157894737" cx="514.2857142857143" cy="400" fill="hsl(261, 60%, 38%)" stroke="none"></circle><circle r="4.605263157894737" cx="571.4285714285714" cy="400" fill="hsl(261, 60%, 38%)" stroke="none"></circle><circle r="4.605263157894737" cx="628.5714285714286" cy="400" fill="hsl(261, 60%, 38%)" stroke="none"></circle><circle r="4.605263157894737" cx="685.7142857142857" cy="400" fill="hsl(261, 60%, 38%)" stroke="none"></circle><circle r="4.605263157894737" cx="742.8571428571428" cy="400" fill="hsl(261, 60%, 38%)" stroke="none"></circle><circle r="4.605263157894737" cx="799.9999999999999" cy="400" fill="hsl(261, 60%, 38%)" stroke="none"></circle><circle r="4.605263157894737" cx="0" cy="480" fill="hsl(261, 60%, 38%)" stroke="none"></circle><circle r="4.605263157894737" cx="57.142857142857146" cy="480" fill="hsl(261, 60%, 38%)" stroke="none"></circle><circle r="4.605263157894737" cx="114.28571428571429" cy="480" fill="hsl(261, 60%, 38%)" stroke="none"></circle><circle r="4.605263157894737" cx="171.42857142857144" cy="480" fill="hsl(261, 60%, 38%)" stroke="none"></circle><circle r="4.605263157894737" cx="228.57142857142858" cy="480" fill="hsl(261, 60%, 38%)" stroke="none"></circle><circle r="4.605263157894737" cx="285.7142857142857" cy="480" fill="hsl(261, 60%, 38%)" stroke="none"></circle><circle r="4.605263157894737" cx="342.8571428571429" cy="480" fill="hsl(261, 60%, 38%)" stroke="none"></circle><circle r="4.605263157894737" cx="400.00000000000006" cy="480" fill="hsl(261, 60%, 38%)" stroke="none"></circle><circle r="4.605263157894737" cx="457.1428571428572" cy="480" fill="hsl(261, 60%, 38%)" stroke="none"></circle><circle r="4.605263157894737" cx="514.2857142857143" cy="480" fill="hsl(261, 60%, 38%)" stroke="none"></circle><circle r="4.605263157894737" cx="571.4285714285714" cy="480" fill="hsl(261, 60%, 38%)" stroke="none"></circle><circle r="4.605263157894737" cx="628.5714285714286" cy="480" fill="hsl(261, 60%, 38%)" stroke="none"></circle><circle r="4.605263157894737" cx="685.7142857142857" cy="480" fill="hsl(261, 60%, 38%)" stroke="none"></circle><circle r="4.605263157894737" cx="742.8571428571428" cy="480" fill="hsl(261, 60%, 38%)" stroke="none"></circle><circle r="4.605263157894737" cx="799.9999999999999" cy="480" fill="hsl(261, 60%, 38%)" stroke="none"></circle><circle r="4.605263157894737" cx="0" cy="560" fill="hsl(261, 60%, 38%)" stroke="none"></circle><circle r="4.605263157894737" cx="57.142857142857146" cy="560" fill="hsl(261, 60%, 38%)" stroke="none"></circle><circle r="4.605263157894737" cx="114.28571428571429" cy="560" fill="hsl(261, 60%, 38%)" stroke="none"></circle><circle r="4.605263157894737" cx="171.42857142857144" cy="560" fill="hsl(261, 60%, 38%)" stroke="none"></circle><circle r="4.605263157894737" cx="228.57142857142858" cy="560" fill="hsl(261, 60%, 38%)" stroke="none"></circle><circle r="4.605263157894737" cx="285.7142857142857" cy="560" fill="hsl(261, 60%, 38%)" stroke="none"></circle><circle r="4.605263157894737" cx="342.8571428571429" cy="560" fill="hsl(261, 60%, 38%)" stroke="none"></circle><circle r="4.605263157894737" cx="400.00000000000006" cy="560" fill="hsl(261, 60%, 38%)" stroke="none"></circle><circle r="4.605263157894737" cx="457.1428571428572" cy="560" fill="hsl(261, 60%, 38%)" stroke="none"></circle><circle r="4.605263157894737" cx="514.2857142857143" cy="560" fill="hsl(261, 60%, 38%)" stroke="none"></circle><circle r="4.605263157894737" cx="571.4285714285714" cy="560" fill="hsl(261, 60%, 38%)" stroke="none"></circle><circle r="4.605263157894737" cx="628.5714285714286" cy="560" fill="hsl(261, 60%, 38%)" stroke="none"></circle><circle r="4.605263157894737" cx="685.7142857142857" cy="560" fill="hsl(261, 60%, 38%)" stroke="none"></circle><circle r="4.605263157894737" cx="742.8571428571428" cy="560" fill="hsl(261, 60%, 38%)" stroke="none"></circle><circle r="4.605263157894737" cx="799.9999999999999" cy="560" fill="hsl(261, 60%, 38%)" stroke="none"></circle><circle r="4.605263157894737" cx="0" cy="640" fill="hsl(261, 60%, 38%)" stroke="none"></circle><circle r="4.605263157894737" cx="57.142857142857146" cy="640" fill="hsl(261, 60%, 38%)" stroke="none"></circle><circle r="4.605263157894737" cx="114.28571428571429" cy="640" fill="hsl(261, 60%, 38%)" stroke="none"></circle><circle r="4.605263157894737" cx="171.42857142857144" cy="640" fill="hsl(261, 60%, 38%)" stroke="none"></circle><circle r="4.605263157894737" cx="228.57142857142858" cy="640" fill="hsl(261, 60%, 38%)" stroke="none"></circle><circle r="4.605263157894737" cx="285.7142857142857" cy="640" fill="hsl(261, 60%, 38%)" stroke="none"></circle><circle r="4.605263157894737" cx="342.8571428571429" cy="640" fill="hsl(261, 60%, 38%)" stroke="none"></circle><circle r="4.605263157894737" cx="400.00000000000006" cy="640" fill="hsl(261, 60%, 38%)" stroke="none"></circle><circle r="4.605263157894737" cx="457.1428571428572" cy="640" fill="hsl(261, 60%, 38%)" stroke="none"></circle><circle r="4.605263157894737" cx="514.2857142857143" cy="640" fill="hsl(261, 60%, 38%)" stroke="none"></circle><circle r="4.605263157894737" cx="571.4285714285714" cy="640" fill="hsl(261, 60%, 38%)" stroke="none"></circle><circle r="4.605263157894737" cx="628.5714285714286" cy="640" fill="hsl(261, 60%, 38%)" stroke="none"></circle><circle r="4.605263157894737" cx="685.7142857142857" cy="640" fill="hsl(261, 60%, 38%)" stroke="none"></circle><circle r="4.605263157894737" cx="742.8571428571428" cy="640" fill="hsl(261, 60%, 38%)" stroke="none"></circle><circle r="4.605263157894737" cx="799.9999999999999" cy="640" fill="hsl(261, 60%, 38%)" stroke="none"></circle><circle r="4.605263157894737" cx="0" cy="720" fill="hsl(261, 60%, 38%)" stroke="none"></circle><circle r="4.605263157894737" cx="57.142857142857146" cy="720" fill="hsl(261, 60%, 38%)" stroke="none"></circle><circle r="4.605263157894737" cx="114.28571428571429" cy="720" fill="hsl(261, 60%, 38%)" stroke="none"></circle><circle r="4.605263157894737" cx="171.42857142857144" cy="720" fill="hsl(261, 60%, 38%)" stroke="none"></circle><circle r="4.605263157894737" cx="228.57142857142858" cy="720" fill="hsl(261, 60%, 38%)" stroke="none"></circle><circle r="4.605263157894737" cx="285.7142857142857" cy="720" fill="hsl(261, 60%, 38%)" stroke="none"></circle><circle r="4.605263157894737" cx="342.8571428571429" cy="720" fill="hsl(261, 60%, 38%)" stroke="none"></circle><circle r="4.605263157894737" cx="400.00000000000006" cy="720" fill="hsl(261, 60%, 38%)" stroke="none"></circle><circle r="4.605263157894737" cx="457.1428571428572" cy="720" fill="hsl(261, 60%, 38%)" stroke="none"></circle><circle r="4.605263157894737" cx="514.2857142857143" cy="720" fill="hsl(261, 60%, 38%)" stroke="none"></circle><circle r="4.605263157894737" cx="571.4285714285714" cy="720" fill="hsl(261, 60%, 38%)" stroke="none"></circle><circle r="4.605263157894737" cx="628.5714285714286" cy="720" fill="hsl(261, 60%, 38%)" stroke="none"></circle><circle r="4.605263157894737" cx="685.7142857142857" cy="720" fill="hsl(261, 60%, 38%)" stroke="none"></circle><circle r="4.605263157894737" cx="742.8571428571428" cy="720" fill="hsl(261, 60%, 38%)" stroke="none"></circle><circle r="4.605263157894737" cx="799.9999999999999" cy="720" fill="hsl(261, 60%, 38%)" stroke="none"></circle><circle r="4.605263157894737" cx="0" cy="800" fill="hsl(261, 60%, 38%)" stroke="none"></circle><circle r="4.605263157894737" cx="57.142857142857146" cy="800" fill="hsl(261, 60%, 38%)" stroke="none"></circle><circle r="4.605263157894737" cx="114.28571428571429" cy="800" fill="hsl(261, 60%, 38%)" stroke="none"></circle><circle r="4.605263157894737" cx="171.42857142857144" cy="800" fill="hsl(261, 60%, 38%)" stroke="none"></circle><circle r="4.605263157894737" cx="228.57142857142858" cy="800" fill="hsl(261, 60%, 38%)" stroke="none"></circle><circle r="4.605263157894737" cx="285.7142857142857" cy="800" fill="hsl(261, 60%, 38%)" stroke="none"></circle><circle r="4.605263157894737" cx="342.8571428571429" cy="800" fill="hsl(261, 60%, 38%)" stroke="none"></circle><circle r="4.605263157894737" cx="400.00000000000006" cy="800" fill="hsl(261, 60%, 38%)" stroke="none"></circle><circle r="4.605263157894737" cx="457.1428571428572" cy="800" fill="hsl(261, 60%, 38%)" stroke="none"></circle><circle r="4.605263157894737" cx="514.2857142857143" cy="800" fill="hsl(261, 60%, 38%)" stroke="none"></circle><circle r="4.605263157894737" cx="571.4285714285714" cy="800" fill="hsl(261, 60%, 38%)" stroke="none"></circle><circle r="4.605263157894737" cx="628.5714285714286" cy="800" fill="hsl(261, 60%, 38%)" stroke="none"></circle><circle r="4.605263157894737" cx="685.7142857142857" cy="800" fill="hsl(261, 60%, 38%)" stroke="none"></circle><circle r="4.605263157894737" cx="742.8571428571428" cy="800" fill="hsl(261, 60%, 38%)" stroke="none"></circle><circle r="4.605263157894737" cx="799.9999999999999" cy="800" fill="hsl(261, 60%, 38%)" stroke="none"></circle></g></svg>